#!OML:ASF I:\Random Stuff\random\construction\7_22_03\Session 2\subj1.ASF
:FULLY-SPECIFIED
:DEGREES
617
root -1.73276 17.7409 0.427308 -24.6787 84.8762 -31.1563
lowerback -1.11632 0.196229 1.08474
upperback -3.77949 0.364613 1.19863
thorax -3.25784 0.195998 0.616562
lowerneck -22.4266 -2.0307 0.682208
upperneck 32.1116 -3.91232 3.19682
head 15.0167 -0.877219 0.520079
rclavicle -1.95679e-015 1.45113e-014
rhumerus 42.2625 10.8443 -71.1107
rradius 105.874
rwrist -47.2716
rhand -29.4912 7.9884
rfingers 7.12502
rthumb -2.82606 -21.9726
lclavicle -1.95679e-015 1.45113e-014
lhumerus -41.3448 -40.2237 111.6
lradius 65.8607
lwrist 49.838
lhand -20.7138 65.1086
lfingers 7.12502
lthumb 5.65071 -95.0133
rfemur -2.34289 16.0824 20.311
rtibia 4.16897
rfoot -2.068 -21.2794
rtoes -17.3281
lfemur -10.1597 -16.2511 -13.0667
ltibia 20.1241
lfoot -15.3987 16.5179
ltoes -27.5248
618
root -1.73233 17.7416 0.428087 -24.7396 84.8851 -31.2103
lowerback -1.1135 0.200043 1.08924
upperback -3.80836 0.371214 1.20204
thorax -3.28937 0.199459 0.617395
lowerneck -22.3617 -2.05416 0.665991
upperneck 32.1433 -3.93705 3.19775
head 15.0176 -0.888195 0.519604
rclavicle -1.14332e-014 6.55989e-015
rhumerus 42.1716 10.857 -71.04
rradius 105.787
rwrist -47.3389
rhand -29.5408 8.12907
rfingers 7.12502
rthumb -2.87396 -21.8313
lclavicle -1.14332e-014 6.55989e-015
lhumerus -41.3836 -40.2599 111.619
lradius 65.8704
lwrist 49.8833
lhand -20.6471 65.3377
lfingers 7.12502
lthumb 5.7151 -95.2406
rfemur -2.36562 16.072 20.3114
rtibia 4.22794
rfoot -2.13357 -21.2764
rtoes -17.1766
lfemur -10.1475 -16.2701 -13.0703
ltibia 20.1111
lfoot -15.3406 16.4983
ltoes -27.6008
619
root -1.73158 17.7409 0.428716 -24.6081 84.9118 -31.0919
lowerback -1.1172 0.2141 1.08409
upperback -3.85062 0.391237 1.18654
thorax -3.33106 0.209652 0.603964
lowerneck -22.3566 -2.07804 0.654548
upperneck 32.2295 -3.9742 3.21903
head 15.0581 -0.89797 0.524758
rclavicle -7.29602e-015 4.82053e-015
rhumerus 42.0634 10.8675 -70.9405
rradius 105.644
rwrist -47.2885
rhand -29.5259 8.31736
rfingers 7.12502
rthumb -2.85962 -21.6432
lclavicle -7.29602e-015 4.82053e-015
lhumerus -41.43 -40.3093 111.643
lradius 65.8632
lwrist 49.9496
lhand -20.6875 65.473
lfingers 7.12502
lthumb 5.67606 -95.377
rfemur -2.39802 16.0519 20.2826
rtibia 4.26777
rfoot -2.12503 -21.2692
rtoes -17.4345
lfemur -10.1553 -16.3039 -13.0914
ltibia 20.0983
lfoot -15.3005 16.4929
ltoes -27.7051
620
root -1.73106 17.7407 0.429002 -24.3685 84.936 -30.8802
lowerback -1.12732 0.231874 1.06416
upperback -3.91291 0.416831 1.16985
thorax -3.38999 0.223244 0.597467
lowerneck -22.3456 -2.09146 0.708197
upperneck 32.3399 -4.00062 3.18263
head 15.1049 -0.902532 0.497094
rclavicle 8.43282e-016 5.81445e-015
rhumerus 41.9359 10.8832 -70.7865
rradius 105.535
rwrist -47.2647
rhand -29.4905 8.53018
rfingers 7.12502
rthumb -2.8254 -21.4309
lclavicle 8.43282e-016 5.81445e-015
lhumerus -41.5081 -40.3596 111.696
lradius 65.8498
lwrist 50.0775
lhand -20.7298 65.4427
lfingers 7.12502
lthumb 5.63526 -95.3477
rfemur -2.44694 16.0376 20.2461
rtibia 4.30956
rfoot -2.09113 -21.2699
rtoes -17.674
lfemur -10.1785 -16.4428 -13.1065
ltibia 20.088
lfoot -15.3599 16.6152
ltoes -27.7401
621
root -1.72974 17.7407 0.429731 -24.462 84.9445 -30.996
lowerback -1.14824 0.241716 1.06016
upperback -3.99231 0.433398 1.1733
thorax -3.46067 0.232488 0.602937
lowerneck -22.2141 -2.08567 0.815582
upperneck 32.4169 -3.99487 3.09542
head 15.1055 -0.896052 0.445774
rclavicle -1.35733e-015 1.21259e-014
rhumerus 41.7813 10.9007 -70.6178
rradius 105.415
rwrist -47.263
rhand -29.5378 8.68931
rfingers 7.12502
rthumb -2.87106 -21.2711
lclavicle -1.35733e-015 1.21259e-014
lhumerus -41.6571 -40.3688 111.797
lradius 65.8727
lwrist 50.2624
lhand -20.7666 65.5242
lfingers 7.12502
lthumb 5.59967 -95.4302
rfemur -2.51861 16.0261 20.2539
rtibia 4.42863
rfoot -2.1537 -21.2987
rtoes -17.5687
lfemur -10.1831 -16.5781 -13.0913
ltibia 20.0654
lfoot -15.4106 16.7601
ltoes -27.8878
622
root -1.72726 17.74 0.430569 -24.7399 84.9404 -31.2965
lowerback -1.19819 0.23272 1.06219
upperback -4.05523 0.425298 1.21741
thorax -3.49817 0.230123 0.647489
lowerneck -22.1055 -2.06468 0.845476
upperneck 32.4827 -3.95054 3.04584
head 15.1083 -0.87819 0.430488
rclavicle 6.58474e-016 1.23246e-014
rhumerus 41.6549 10.9477 -70.4174
rradius 105.278
rwrist -47.2715
rhand -29.7179 8.52342
rfingers 7.12502
rthumb -3.04499 -21.4346
lclavicle 6.58474e-016 1.23246e-014
lhumerus -41.7592 -40.2918 111.904
lradius 65.8824
lwrist 50.4018
lhand -20.8246 65.6712
lfingers 7.12502
lthumb 5.54374 -95.5787
rfemur -2.60229 16.0191 20.2806
rtibia 4.5793
rfoot -2.23812 -21.3099
rtoes -17.5933
lfemur -10.1821 -16.6868 -13.0603
ltibia 20.0364
lfoot -15.3821 16.8987
ltoes -28.1358
623
root -1.72404 17.7396 0.431249 -24.713 84.9528 -31.2669
lowerback -1.25053 0.202576 1.01525
upperback -4.06733 0.386743 1.28039
thorax -3.4818 0.214062 0.739493
lowerneck -22.1188 -2.03434 0.753309
upperneck 32.5167 -3.88942 3.10162
head 15.1299 -0.854425 0.481822
rclavicle 1.15947e-014 4.17448e-015
rhumerus 41.5858 11.0321 -70.1928
rradius 105.197
rwrist -47.3319
rhand -29.84 8.27146
rfingers 7.12502
rthumb -3.16296 -21.6848
lclavicle 1.15947e-014 4.17448e-015
lhumerus -41.7321 -40.1728 111.949
lradius 65.859
lwrist 50.4532
lhand -20.8675 65.7275
lfingers 7.12502
lthumb 5.50227 -95.6361
rfemur -2.62015 16.009 20.2762
rtibia 4.66085
rfoot -2.2698 -21.2794
rtoes -17.8022
lfemur -10.1575 -16.7959 -13.0735
ltibia 20.019
lfoot -15.3717 17.0079
ltoes -28.1702
624
root -1.72038 17.7387 0.432213 -24.3671 84.9809 -30.8927
lowerback -1.30302 0.176187 0.9273
upperback -4.05068 0.350525 1.31844
thorax -3.43538 0.199576 0.828734
lowerneck -22.1658 -2.01234 0.670062
upperneck 32.5345 -3.85513 3.182
head 15.1528 -0.837701 0.53631
rclavicle -3.63093e-015 -1.50082e-014
rhumerus 41.5203 11.0825 -70.0711
rradius 105.11
rwrist -47.4026
rhand -29.8333 8.14739
rfingers 7.12502
rthumb -3.15652 -21.809
lclavicle -3.63093e-015 -1.50082e-014
lhumerus -41.6694 -40.1408 111.962
lradius 65.8206
lwrist 50.5257
lhand -20.8875 65.7262
lfingers 7.12502
lthumb 5.48298 -95.6353
rfemur -2.58853 15.9971 20.2453
rtibia 4.69163
rfoot -2.25931 -21.277
rtoes -18.0712
lfemur -10.103 -16.8262 -13.1354
ltibia 20.0087
lfoot -15.3737 17.0354
ltoes -28.0315
625
root -1.71738 17.738 0.433198 -24.2819 85.0022 -30.7894
lowerback -1.34934 0.157375 0.883172
upperback -4.05566 0.325108 1.33196
thorax -3.41449 0.188758 0.867946
lowerneck -22.1578 -1.99996 0.684429
upperneck 32.5637 -3.84255 3.18397
head 15.1642 -0.82896 0.537645
rclavicle -3.27684e-015 3.18055e-015
rhumerus 41.3967 11.1048 -70.059
rradius 105.043
rwrist -47.453
rhand -29.8955 7.94609
rfingers 7.12502
rthumb -3.21656 -22.0094
lclavicle -3.27684e-015 3.18055e-015
lhumerus -41.6848 -40.1725 111.996
lradius 65.7866
lwrist 50.6978
lhand -20.879 65.7215
lfingers 7.12502
lthumb 5.49121 -95.6304
rfemur -2.58509 15.9816 20.2378
rtibia 4.73853
rfoot -2.29441 -21.3167
rtoes -18.1561
lfemur -10.0642 -16.8344 -13.165
ltibia 19.9966
lfoot -15.3612 17.0424
ltoes -28.0025
